<svg xmlns="http://www.w3.org/2000/svg" viewBox="0 0 480 240"><linearGradient id="firstGradient" gradientUnits="userSpaceOnUse" x1="98.0327" y1="239.6494" x2="98.0327" y2="38.9565"><stop offset="0" style="stop-color:#f2f2f2"/><stop offset="1" style="stop-color:#fff"/></linearGradient><linearGradient id="secondGradient" gradientUnits="userSpaceOnUse" x1="163.1279" y1="117.3901" x2="151.0935" y2="73.0813"><stop offset="0" style="stop-color:#f44336"/><stop offset="1" style="stop-color:#e91e63"/></linearGradient><linearGradient id="thirdGradient" gradientUnits="userSpaceOnUse" x1="167.3027" y1="80.7715" x2="155.2322" y2="36.3298" gradientTransform="matrix(0.7092 -0.705 0.705 0.7092 -72.8945 176.8438)"><stop offset="0" style="stop-color:#2196f3"/><stop offset="1" style="stop-color:#00bcd4"/></linearGradient><linearGradient id="fourthGradient" gradientUnits="userSpaceOnUse" x1="93.9902" y1="100.7905" x2="81.9194" y2="56.3479" gradientTransform="matrix(0.7092 -0.705 0.705 0.7092 -72.8945 176.8438)"><stop offset="0" style="stop-color:#ff9800"/><stop offset="1" style="stop-color:#ffc107"/></linearGradient><linearGradient id="fifthGradient" gradientUnits="userSpaceOnUse" x1="76.7183" y1="245.3662" x2="69.102" y2="217.3245"><stop offset="0" style="stop-color:#4cAf50"/><stop offset="1" style="stop-color:#8bc34a"/></linearGradient><linearGradient id="sixthGradient" gradientUnits="userSpaceOnUse" x1="316.8354" y1="239.6494" x2="316.8354" y2="4.882813e-004"><stop offset="0" style="stop-color:#f2f2f2"/><stop offset="1" style="stop-color:#fff"/></linearGradient><linearGradient id="seventhGradient" gradientUnits="userSpaceOnUse" x1="419.6777" y1="163.5229" x2="404.8346" y2="108.8729" gradientTransform="matrix(0.9998 -0.0201 0.0201 0.9998 -3.5942 -15.9521)"><stop offset="0" style="stop-color:#f44336"/><stop offset="1" style="stop-color:#e91e63"/></linearGradient><linearGradient id="eighthGradient" gradientUnits="userSpaceOnUse" x1="346.1387" y1="106.9087" x2="331.2953" y2="52.2577" gradientTransform="matrix(0.9998 -0.0201 0.0201 0.9998 -3.5942 -15.9521)"><stop offset="0" style="stop-color:#3f51b5"/><stop offset="1" style="stop-color:#673ab7"/></linearGradient><linearGradient id="ninethGradient" gradientUnits="userSpaceOnUse" x1="255.9844" y1="131.5229" x2="241.1415" y2="76.8739" gradientTransform="matrix(0.9998 -0.0201 0.0201 0.9998 -3.5942 -15.9521)"><stop offset="0" style="stop-color:#ff9800"/><stop offset="1" style="stop-color:#ffc107"/></linearGradient><linearGradient id="tenthGradient" gradientUnits="userSpaceOnUse" x1="222.1377" y1="217.6768" x2="207.2948" y2="163.0277" gradientTransform="matrix(0.9998 -0.0201 0.0201 0.9998 -3.5942 -15.9521)"><stop offset="0" style="stop-color:#8bc34a"/><stop offset="1" style="stop-color:#4caf50"/></linearGradient><g opacity=".2"><image opacity="0.1" width="257" height="262" href="second-shadow.png"  transform="matrix(1 0 0 1 -30 18)"/><path fill="url(#firstGradient)" d="M161.377,118.027c-4.919,0.759-10.122-0.088-14.782-2.775c-10.866-6.269-14.578-20.096-8.311-30.963c6.268-10.866,20.096-14.578,30.963-8.311c3.189,1.839,5.756,4.333,7.641,7.209c5.509-9.352,11.926-18.175,19.172-26.327c-1.669-1.15-3.38-2.259-5.167-3.29c-57.862-33.372-135.152-7.655-172.683,57.416C-5.444,152-5.306,200.211,14.317,239.649h37.874c-0.005-3.856,0.969-7.769,3.04-11.358c6.267-10.868,20.096-14.579,30.962-8.312c7.298,4.209,11.362,11.829,11.351,19.67h72.227c-3.674-7.787-6.798-15.954-9.297-24.475C150.791,182.164,151.767,148.555,161.377,118.027z M64.791,181.467c-6.267,10.866-20.096,14.578-30.962,8.31c-10.866-6.267-14.579-20.094-8.311-30.961c6.268-10.867,20.096-14.578,30.962-8.312C67.346,156.772,71.059,170.6,64.791,181.467z M102.543,116.012c-6.268,10.867-20.097,14.58-30.963,8.311c-10.867-6.268-14.579-20.096-8.311-30.962c6.268-10.867,20.096-14.578,30.962-8.311C105.098,91.317,108.811,105.146,102.543,116.012z"/><image opacity="0.1" width="74" height="77" href="third-shadow.png"  transform="matrix(1 0 0 1 118 57)"/><image opacity="0.1" width="77" height="77" href="third-shadow.png"  transform="matrix(1 0 0 1 43 66.2305)"/><image opacity="0.1" width="77" height="77" href="third-shadow.png"  transform="matrix(1 0 0 1 5 132.2305)"/><image opacity="0.1" width="77" height="54" href="fourth-shadow.png"  transform="matrix(1 0 0 1 35 201)"/><path fill="url(#secondGradient)" d="M161.432,117.851c3.867-12.237,9.129-23.973,15.645-34.978c-0.882-1.394-1.914-2.719-3.125-3.937c-8.963-9.018-23.539-9.061-32.555-0.097c-9.017,8.963-9.06,23.539-0.097,32.556C146.768,116.895,154.322,119.037,161.432,117.851z"/><circle fill="url(#thirdGradient)" cx="82.755" cy="104.674" r="23.02"/><circle fill="url(#fourthGradient)" cx="44.873" cy="170.557" r="23.02"/><path fill="url(#fifthGradient)" d="M97.763,239.649c0-5.869-2.228-11.738-6.691-16.229c-8.963-9.017-23.539-9.061-32.555-0.097c-4.526,4.499-6.788,10.412-6.788,16.326H97.763z"/></g><g opacity=".5"><image opacity="0.1" width="387" height="300" href="fifth-shadow.png"  transform="matrix(1 0 0 1 123 -20)"/><path fill="url(#sixthGradient)" d="M169.77,239.649h196.142c3.493-5.546,8.947-9.892,15.75-11.887l31.553-9.253c49.214-14.435,77.445-66.101,63.011-115.314C453.107,24.378,362.529-18.389,273.892,7.61c-88.631,25.995-139.413,118.942-113.418,207.565C162.972,223.695,166.096,231.863,169.77,239.649z M403.351,85.837c14.801-4.342,30.251,4.1,34.594,18.903c4.342,14.801-4.101,30.251-18.903,34.594c-14.802,4.341-30.252-4.101-34.595-18.902C380.106,105.628,388.548,90.178,403.351,85.837z M328.933,30.199c14.802-4.341,30.252,4.101,34.594,18.902c4.341,14.803-4.101,30.254-18.902,34.595c-14.803,4.342-30.252-4.101-34.595-18.903C305.688,49.99,314.131,34.541,328.933,30.199zM239.771,56.351c14.802-4.341,30.254,4.1,34.595,18.902c4.341,14.802-4.101,30.253-18.904,34.594c-14.802,4.342-30.251-4.101-34.593-18.903C216.527,76.143,224.969,60.692,239.771,56.351z M207.195,143.371c14.803-4.342,30.252,4.1,34.595,18.902c4.342,14.803-4.101,30.253-18.903,34.593c-14.802,4.342-30.253-4.1-34.595-18.901C183.952,163.162,192.393,147.712,207.195,143.371z"/><image opacity="0.1" width="87" height="88" href="sixth-shadow.png"  transform="matrix(1 0 0 1 367 68)"/><image opacity="0.1" width="87" height="88" href="sixth-shadow.png"  transform="matrix(1 0 0 1 292 13)"/><image opacity="0.1" width="88" height="88" href="first-shadow.png"  transform="matrix(1 0 0 1 202 39)"/><image opacity="0.1" width="88" height="88" href="first-shadow.png"  transform="matrix(1 0 0 1 170 126)"/><circle fill="url(#seventhGradient)" cx="411.316" cy="111.933" r="28.307"/><circle fill="url(#eighthGradient)" cx="336.654" cy="56.807" r="28.307"/><circle fill="url(#ninethGradient)" cx="247.013" cy="83.23" r="28.307"/><circle fill="url(#tenthGradient)" cx="214.905" cy="170.047" r="28.307"/></g></svg>