<svg xmlns="http://www.w3.org/2000/svg" viewBox="0 0 480 240"><linearGradient id="firstGradient" gradientUnits="userSpaceOnUse" x1="98.0327" y1="239.6494" x2="98.0327" y2="38.9565"><stop offset="0" style="stop-color:#f2f2f2"/><stop offset="1" style="stop-color:#fff"/></linearGradient><linearGradient id="secondGradient" gradientUnits="userSpaceOnUse" x1="163.1279" y1="117.3901" x2="151.0935" y2="73.0813"><stop offset="0" style="stop-color:#f44336"/><stop offset="1" style="stop-color:#e91e63"/></linearGradient><linearGradient id="thirdGradient" gradientUnits="userSpaceOnUse" x1="167.3027" y1="80.7715" x2="155.2322" y2="36.3298" gradientTransform="matrix(0.7092 -0.705 0.705 0.7092 -72.8945 176.8438)"><stop offset="0" style="stop-color:#2196f3"/><stop offset="1" style="stop-color:#00bcd4"/></linearGradient><linearGradient id="fourthGradient" gradientUnits="userSpaceOnUse" x1="93.9902" y1="100.7905" x2="81.9194" y2="56.3479" gradientTransform="matrix(0.7092 -0.705 0.705 0.7092 -72.8945 176.8438)"><stop offset="0" style="stop-color:#ff9800"/><stop offset="1" style="stop-color:#ffc107"/></linearGradient><linearGradient id="fifthGradient" gradientUnits="userSpaceOnUse" x1="76.7183" y1="245.3662" x2="69.102" y2="217.3245"><stop offset="0" style="stop-color:#4cAf50"/><stop offset="1" style="stop-color:#8bc34a"/></linearGradient><g opacity=".2"><image opacity=".1" width="317" height="262" href="D2945615.png"  transform="matrix(1 0 0 1 -30 18)"/><path fill="url(#firstGradient)" d="M52.191,239.649c-0.005-3.856,0.969-7.769,3.04-11.358c6.267-10.868,20.096-14.579,30.962-8.312c7.298,4.209,11.362,11.829,11.351,19.67H256.52c1.688-9.169-2.429-18.784-10.982-23.716c-5.113-2.949-10.825-3.62-16.167-2.511c-5.134,1.043-10.852,0.352-15.825-2.516c-10.867-6.268-14.579-20.095-8.311-30.962l13.361-23.165c20.838-36.128,8.427-82.369-27.702-103.207c-57.862-33.372-135.152-7.655-172.683,57.416C-5.444,152-5.306,200.211,14.317,239.649H52.191z M138.285,84.289c6.268-10.866,20.096-14.578,30.963-8.311c10.866,6.268,14.577,20.096,8.311,30.961c-6.269,10.868-20.095,14.579-30.963,8.312C135.73,108.983,132.018,95.156,138.285,84.289z M63.27,93.36c6.268-10.867,20.096-14.578,30.962-8.311c10.867,6.268,14.579,20.096,8.312,30.962c-6.268,10.867-20.097,14.58-30.963,8.311C60.714,118.055,57.002,104.227,63.27,93.36z M25.518,158.816c6.268-10.867,20.096-14.578,30.962-8.312c10.866,6.268,14.579,20.096,8.311,30.963c-6.267,10.866-20.096,14.578-30.962,8.31C22.962,183.51,19.25,169.683,25.518,158.816z"/><image opacity=".1" width="77" height="77" href="D2945617.png"  transform="matrix(1 0 0 1 118 57)"/><image opacity=".1" width="77" height="77" href="D2945617.png"  transform="matrix(1 0 0 1 43 66)"/><image opacity=".1" width="77" height="77" href="D2945617.png"  transform="matrix(1 0 0 1 5 132)"/><image opacity=".1" width="77" height="54" href="D2945617.png"  transform="matrix(1 0 0 1 35 201)"/><circle fill="url(#secondGradient)" cx="157.625" cy="95.165" r="23.02"/><circle fill="url(#thirdGradient)" cx="82.755" cy="104.674" r="23.02"/><circle fill="url(#fourthGradient)" cx="44.873" cy="170.557" r="23.02"/><path fill="url(#fifthGradient)" d="M97.763,239.649c0-5.869-2.228-11.738-6.691-16.229c-8.963-9.017-23.539-9.061-32.555-0.097c-4.526,4.499-6.788,10.412-6.788,16.326H97.763z"/></g><g opacity=".5"><path fill="none" stroke="#fff" stroke-width="4" stroke-miterlimit="10" d="M364.14,239.649c1.764-2.801,4.032-5.293,6.725-7.326"/><path fill="none" stroke="#fff" stroke-width="4" stroke-miterlimit="10" stroke-dasharray="20.2896,20.2896" d="M389.631,224.966l21.417-6.281c48.803-14.314,76.799-65.549,62.485-114.352C450.608,26.174,360.786-16.235,272.888,9.546c-87.891,25.778-138.249,117.95-112.472,205.833c0.55,1.875,1.13,3.732,1.74,5.572"/><path fill="none" stroke="#fff" stroke-width="4" stroke-miterlimit="10" d="M165.642,230.482c1.247,3.112,2.579,6.168,3.994,9.167"/><path fill="none" stroke="#fff" stroke-width="4" stroke-miterlimit="10" stroke-dasharray="21.7116,21.7116" d="M401.267,87.121c14.678-4.306,29.999,4.065,34.306,18.746c4.306,14.678-4.067,29.999-18.746,34.305c-14.679,4.304-30-4.067-34.306-18.745C378.217,106.747,386.588,91.426,401.267,87.121z"/><path fill="none" stroke="#fff" stroke-width="4" stroke-miterlimit="10" stroke-dasharray="21.7116,21.7116" d="M327.47,31.947c14.679-4.305,30,4.066,34.305,18.745c4.305,14.679-4.066,30.001-18.745,34.306c-14.679,4.306-30-4.066-34.307-18.745C304.42,51.573,312.792,36.252,327.47,31.947z"/><path fill="none" stroke="#fff" stroke-width="4" stroke-miterlimit="10" stroke-dasharray="21.7114,21.7114" d="M239.052,57.88c14.679-4.305,30.001,4.066,34.307,18.744c4.305,14.679-4.067,30.001-18.747,34.306c-14.678,4.306-29.999-4.066-34.305-18.746C216.002,77.507,224.374,62.186,239.052,57.88z"/><path fill="none" stroke="#fff" stroke-width="4" stroke-miterlimit="10" stroke-dasharray="21.7114,21.7114" d="M206.749,144.175c14.679-4.306,30,4.066,34.306,18.745c4.306,14.679-4.066,30-18.745,34.304c-14.679,4.306-30-4.065-34.306-18.744C183.699,163.8,192.07,148.479,206.749,144.175z"/></g></svg>