<svg viewBox="0 0 480 160" xmlns="http://www.w3.org/2000/svg"><rect width="480" height="160"/><rect class="windowBackgroundGray" y="122" width="480" height="38"/><image opacity="0.15" width="492" height="134" href="variables-previews/actionbarshadow.png"  transform="matrix(1 0 0 1 -6 -4.332)"/><rect class="player_actionBar" width="480" height="122"/><rect class="player_actionBarTop" width="480" height="38"/><rect opacity=".2" width="480" height="38"/><path fill="#fff" d="M419.363,26.917h-2.619V14.266l-3.863,1.319v-2.219l6.146-2.263h0.336V26.917"/><path fill="#fff" d="M435.438,26.917H424.84v-1.808l5.131-5.596c0.435-0.476,0.791-0.899,1.076-1.271s0.514-0.71,0.685-1.018c0.168-0.307,0.286-0.594,0.354-0.86c0.07-0.267,0.104-0.534,0.104-0.802c0-0.36-0.054-0.693-0.156-1c-0.105-0.308-0.256-0.572-0.455-0.797c-0.199-0.223-0.441-0.397-0.73-0.524c-0.289-0.126-0.621-0.189-0.996-0.189c-0.454,0-0.85,0.072-1.186,0.218c-0.336,0.145-0.613,0.345-0.832,0.601c-0.221,0.256-0.387,0.563-0.498,0.92c-0.113,0.356-0.168,0.749-0.168,1.174h-2.631c0-0.692,0.117-1.344,0.352-1.954c0.234-0.609,0.58-1.142,1.033-1.596c0.455-0.455,1.014-0.813,1.678-1.077c0.664-0.263,1.423-0.396,2.273-0.396c0.787,0,1.486,0.104,2.1,0.31c0.614,0.206,1.132,0.496,1.554,0.871c0.424,0.375,0.744,0.832,0.965,1.369c0.219,0.538,0.33,1.135,0.33,1.792c0,0.49-0.08,0.976-0.238,1.456c-0.16,0.479-0.379,0.958-0.66,1.434c-0.281,0.478-0.617,0.955-1.008,1.435c-0.389,0.479-0.814,0.961-1.277,1.444l-3.518,3.767h7.318v2.099"/><path fill="#fff" d="M437.666,16.418c0-0.418,0.133-0.768,0.4-1.044s0.643-0.417,1.127-0.417c0.489,0,0.868,0.139,1.135,0.417c0.268,0.278,0.399,0.626,0.399,1.044c0,0.412-0.133,0.752-0.399,1.023c-0.266,0.271-0.646,0.406-1.135,0.406c-0.238,0-0.453-0.037-0.646-0.108c-0.191-0.072-0.352-0.173-0.481-0.304c-0.129-0.129-0.229-0.28-0.298-0.455C437.701,16.807,437.666,16.621,437.666,16.418z M437.666,25.607c0-0.418,0.133-0.767,0.4-1.043c0.267-0.277,0.643-0.418,1.127-0.418c0.489,0,0.868,0.14,1.135,0.418c0.268,0.277,0.399,0.625,0.399,1.043c0,0.412-0.133,0.752-0.399,1.023c-0.266,0.271-0.646,0.406-1.135,0.406c-0.238,0-0.453-0.036-0.646-0.107c-0.19-0.072-0.352-0.174-0.481-0.304c-0.129-0.13-0.229-0.281-0.298-0.455C437.701,25.998,437.666,25.811,437.666,25.607"/><path fill="#fff" d="M446.357,17.836h1.559c0.455,0,0.848-0.061,1.18-0.179c0.332-0.119,0.609-0.283,0.834-0.492c0.224-0.209,0.39-0.462,0.498-0.758c0.107-0.296,0.162-0.624,0.162-0.985c0-0.75-0.197-1.333-0.59-1.748c-0.395-0.415-0.994-0.623-1.803-0.623c-0.347,0-0.668,0.053-0.963,0.157c-0.298,0.104-0.554,0.252-0.771,0.444c-0.215,0.19-0.385,0.422-0.508,0.691c-0.123,0.271-0.185,0.576-0.185,0.915h-2.631c0-0.62,0.125-1.194,0.373-1.721c0.25-0.527,0.597-0.983,1.039-1.369c0.445-0.386,0.976-0.688,1.592-0.903c0.617-0.217,1.289-0.326,2.019-0.326c0.752,0,1.438,0.097,2.057,0.287c0.621,0.191,1.154,0.476,1.599,0.851c0.442,0.375,0.786,0.843,1.032,1.401c0.246,0.56,0.367,1.207,0.367,1.943c0,0.317-0.049,0.639-0.149,0.963c-0.102,0.324-0.254,0.637-0.455,0.936c-0.201,0.301-0.455,0.582-0.758,0.845c-0.304,0.265-0.656,0.485-1.062,0.666c0.484,0.166,0.893,0.377,1.229,0.633c0.336,0.256,0.606,0.545,0.815,0.866c0.211,0.32,0.363,0.666,0.461,1.033c0.099,0.367,0.146,0.746,0.146,1.137c0,0.736-0.136,1.393-0.4,1.97c-0.268,0.578-0.637,1.063-1.109,1.456s-1.032,0.692-1.678,0.898c-0.646,0.205-1.344,0.308-2.096,0.308c-0.687,0-1.34-0.094-1.963-0.28c-0.625-0.188-1.176-0.468-1.65-0.84c-0.477-0.371-0.854-0.835-1.137-1.391c-0.282-0.557-0.422-1.198-0.422-1.928h2.629c0,0.347,0.063,0.664,0.184,0.953c0.123,0.289,0.297,0.537,0.521,0.742c0.225,0.205,0.494,0.363,0.813,0.476s0.672,0.168,1.062,0.168c0.815,0,1.457-0.216,1.928-0.649c0.469-0.433,0.703-1.061,0.703-1.883c0-0.447-0.068-0.833-0.207-1.158c-0.137-0.324-0.332-0.593-0.584-0.806s-0.558-0.37-0.914-0.472c-0.357-0.101-0.76-0.15-1.207-0.15h-1.559L446.357,17.836"/><path fill="#fff" d="M466.186,20.283c0,1.249-0.122,2.307-0.366,3.177c-0.246,0.87-0.593,1.577-1.039,2.121c-0.447,0.545-0.986,0.94-1.619,1.187c-0.631,0.244-1.336,0.367-2.115,0.367c-0.771,0-1.477-0.123-2.111-0.367c-0.635-0.246-1.18-0.642-1.633-1.187c-0.455-0.544-0.807-1.251-1.057-2.121c-0.248-0.87-0.373-1.928-0.373-3.177V17.74c0-1.249,0.123-2.307,0.369-3.172c0.244-0.865,0.592-1.567,1.043-2.104s0.994-0.925,1.629-1.164c0.635-0.237,1.34-0.356,2.111-0.356c0.778,0,1.485,0.119,2.12,0.356c0.636,0.238,1.179,0.626,1.63,1.164c0.45,0.538,0.799,1.239,1.045,2.104c0.244,0.867,0.366,1.924,0.366,3.172V20.283L466.186,20.283z M463.557,17.338c0-0.801-0.057-1.474-0.168-2.02c-0.112-0.543-0.274-0.984-0.491-1.319c-0.218-0.335-0.482-0.577-0.798-0.726c-0.313-0.147-0.672-0.222-1.075-0.222c-0.404,0-0.765,0.074-1.076,0.222c-0.314,0.148-0.58,0.391-0.797,0.726c-0.218,0.335-0.382,0.776-0.492,1.319c-0.111,0.546-0.168,1.219-0.168,2.02v3.323c0,0.793,0.059,1.468,0.174,2.024c0.115,0.556,0.281,1.006,0.498,1.353c0.217,0.346,0.481,0.599,0.801,0.757c0.316,0.159,0.678,0.238,1.082,0.238c0.412,0,0.771-0.079,1.082-0.238c0.312-0.159,0.572-0.411,0.785-0.757c0.213-0.347,0.373-0.797,0.481-1.353c0.107-0.557,0.162-1.23,0.162-2.024V17.338"/><path fill="#fff" d="M331.178,30.07l13.937-17.27c-0.539-0.408-5.901-4.885-13.948-4.885s-13.405,4.477-13.945,4.885l13.938,17.27l0.009,0.013h0.002L331.178,30.07"/><polygon fill="#fff" points="348.583,30.08 370.75,30.08 370.75,7.913 "/><polygon fill="#fff" points="394.5,9.5 394.5,7.917 389.75,7.917 389.75,9.5 385,9.5 385,30.083 399.25,30.083 399.25,9.5 "/><g class="player_actionBarTitle"><path d="M113.873,65.325v7.925h-3.705V51.922h8.158c1.24,0,2.342,0.168,3.304,0.506c0.962,0.336,1.774,0.808,2.438,1.413s1.17,1.323,1.517,2.153s0.521,1.733,0.521,2.71c0,1.035-0.174,1.963-0.521,2.783s-0.853,1.514-1.517,2.08s-1.477,1.001-2.438,1.304s-2.063,0.454-3.304,0.454H113.873z M113.873,62.352h4.453c0.713,0,1.326-0.088,1.839-0.264s0.935-0.425,1.267-0.747s0.574-0.705,0.726-1.149s0.228-0.931,0.228-1.458c0-0.498-0.076-0.977-0.228-1.436s-0.394-0.866-0.726-1.224c-0.332-0.355-0.754-0.639-1.267-0.85c-0.513-0.209-1.126-0.314-1.839-0.314h-4.453V62.352z"/><path d="M138.307,73.25c-0.098-0.186-0.178-0.405-0.241-0.659s-0.12-0.527-0.169-0.82c-0.234,0.244-0.495,0.474-0.783,0.688s-0.605,0.402-0.952,0.564c-0.347,0.16-0.723,0.287-1.128,0.381c-0.405,0.092-0.838,0.139-1.297,0.139c-0.791,0-1.518-0.12-2.182-0.359c-0.664-0.238-1.233-0.57-1.707-0.996c-0.474-0.424-0.845-0.925-1.113-1.501s-0.402-1.201-0.402-1.875c0-0.85,0.16-1.602,0.482-2.256s0.791-1.201,1.406-1.641s1.37-0.773,2.264-1.003s1.912-0.345,3.055-0.345h2.24v-1.04c0-0.82-0.229-1.477-0.688-1.971c-0.459-0.492-1.158-0.739-2.096-0.739c-0.42,0-0.801,0.057-1.143,0.169s-0.632,0.264-0.871,0.453c-0.239,0.191-0.425,0.418-0.557,0.682s-0.197,0.547-0.197,0.85h-3.561c0-0.625,0.154-1.228,0.462-1.809s0.745-1.1,1.312-1.553c0.566-0.455,1.252-0.818,2.058-1.092s1.706-0.41,2.702-0.41c0.889,0,1.709,0.115,2.461,0.344c0.752,0.23,1.402,0.572,1.949,1.025c0.547,0.455,0.971,1.021,1.273,1.699c0.303,0.68,0.455,1.473,0.455,2.381v7.031c0,1.426,0.199,2.563,0.6,3.413v0.249H138.307z M134.396,70.687c0.41,0,0.793-0.054,1.149-0.161s0.679-0.249,0.967-0.425s0.54-0.378,0.755-0.608c0.215-0.229,0.385-0.461,0.512-0.695v-2.988h-1.918c-1.318,0-2.311,0.229-2.975,0.688s-0.996,1.108-0.996,1.948c0,0.322,0.055,0.62,0.162,0.894s0.268,0.511,0.482,0.71c0.215,0.201,0.477,0.357,0.784,0.469C133.627,70.631,133.986,70.687,134.396,70.687z"/><path d="M153.365,60.652c-0.234-0.039-0.471-0.068-0.71-0.088s-0.485-0.029-0.739-0.029c-0.859,0-1.559,0.166-2.096,0.498s-0.938,0.791-1.201,1.377v10.84h-3.559V57.4h3.398l0.088,1.772c0.4-0.645,0.896-1.149,1.486-1.517c0.591-0.365,1.287-0.549,2.088-0.549c0.205,0,0.437,0.021,0.695,0.066c0.259,0.043,0.447,0.09,0.564,0.139L153.365,60.652z"/><path d="M160.807,53.548V57.4h2.799v2.637h-2.799v8.848c0,0.361,0.039,0.654,0.117,0.879s0.191,0.398,0.338,0.52c0.146,0.123,0.319,0.205,0.52,0.25c0.2,0.043,0.422,0.065,0.666,0.065s0.481-0.017,0.711-0.052c0.229-0.033,0.408-0.065,0.535-0.095v2.754c-0.283,0.078-0.613,0.153-0.989,0.228c-0.376,0.072-0.827,0.109-1.354,0.109c-0.586,0-1.131-0.078-1.634-0.234s-0.938-0.41-1.304-0.762s-0.652-0.811-0.857-1.377s-0.307-1.26-0.307-2.08v-9.053h-2.607V57.4h2.607v-3.853H160.807z"/><path d="M166.33,53.284c0-0.547,0.173-1.001,0.52-1.362s0.842-0.542,1.486-0.542s1.143,0.181,1.494,0.542s0.527,0.815,0.527,1.362c0,0.537-0.176,0.984-0.527,1.341s-0.85,0.534-1.494,0.534s-1.14-0.178-1.486-0.534S166.33,53.821,166.33,53.284z M170.109,73.25h-3.561V57.4h3.561V73.25z"/><path d="M178.443,53.548V57.4h2.799v2.637h-2.799v8.848c0,0.361,0.039,0.654,0.117,0.879s0.191,0.398,0.338,0.52c0.146,0.123,0.319,0.205,0.52,0.25c0.2,0.043,0.422,0.065,0.666,0.065s0.481-0.017,0.711-0.052c0.229-0.033,0.408-0.065,0.535-0.095v2.754c-0.283,0.078-0.613,0.153-0.989,0.228c-0.376,0.072-0.827,0.109-1.354,0.109c-0.586,0-1.131-0.078-1.634-0.234s-0.938-0.41-1.304-0.762s-0.652-0.811-0.857-1.377s-0.307-1.26-0.307-2.08v-9.053h-2.607V57.4h2.607v-3.853H178.443z"/><path d="M193.43,73.25c-0.098-0.186-0.179-0.405-0.242-0.659s-0.119-0.527-0.168-0.82   c-0.234,0.244-0.496,0.474-0.784,0.688s-0.605,0.402-0.952,0.564c-0.347,0.16-0.723,0.287-1.128,0.381   c-0.405,0.092-0.837,0.139-1.296,0.139c-0.791,0-1.52-0.12-2.184-0.359c-0.664-0.238-1.232-0.57-1.706-0.996   c-0.474-0.424-0.845-0.925-1.113-1.501s-0.403-1.201-0.403-1.875c0-0.85,0.162-1.602,0.484-2.256s0.791-1.201,1.406-1.641   s1.369-0.773,2.263-1.003s1.911-0.345,3.054-0.345h2.242v-1.04c0-0.82-0.23-1.477-0.689-1.971   c-0.459-0.492-1.156-0.739-2.094-0.739c-0.42,0-0.801,0.057-1.143,0.169s-0.633,0.264-0.872,0.453   c-0.239,0.191-0.425,0.418-0.557,0.682s-0.198,0.547-0.198,0.85h-3.559c0-0.625,0.153-1.228,0.461-1.809s0.744-1.1,1.311-1.553   c0.566-0.455,1.253-0.818,2.059-1.092s1.707-0.41,2.703-0.41c0.889,0,1.709,0.115,2.461,0.344c0.752,0.23,1.4,0.572,1.947,1.025   c0.547,0.455,0.973,1.021,1.275,1.699c0.303,0.68,0.453,1.473,0.453,2.381v7.031c0,1.426,0.201,2.563,0.602,3.413v0.249H193.43z    M189.518,70.687c0.41,0,0.794-0.054,1.15-0.161s0.679-0.249,0.967-0.425s0.539-0.378,0.754-0.608   c0.215-0.229,0.387-0.461,0.514-0.695v-2.988h-1.92c-1.318,0-2.309,0.229-2.973,0.688s-0.996,1.108-0.996,1.948   c0,0.322,0.053,0.62,0.16,0.894s0.27,0.511,0.484,0.71c0.215,0.201,0.476,0.357,0.783,0.469   C188.749,70.631,189.107,70.687,189.518,70.687z"/><path d="M207.668,53.284c0-0.547,0.173-1.001,0.52-1.362s0.842-0.542,1.486-0.542s1.143,0.181,1.494,0.542s0.527,0.815,0.527,1.362c0,0.537-0.176,0.984-0.527,1.341s-0.85,0.534-1.494,0.534s-1.14-0.178-1.486-0.534S207.668,53.821,207.668,53.284z M211.447,73.25h-3.561V57.4h3.561V73.25z"/><path d="M218.625,57.4l0.102,1.831c0.557-0.674,1.227-1.196,2.008-1.567s1.65-0.557,2.607-0.557c0.762,0,1.452,0.105,2.072,0.314c0.62,0.211,1.15,0.55,1.59,1.019s0.778,1.079,1.018,1.831s0.359,1.665,0.359,2.739V73.25h-3.561V62.981c0-0.547-0.061-1.008-0.183-1.384s-0.3-0.682-0.534-0.916s-0.525-0.402-0.872-0.506c-0.347-0.102-0.745-0.153-1.194-0.153c-0.732,0-1.369,0.176-1.911,0.527s-0.974,0.825-1.296,1.421V73.25h-3.561V57.4H218.625z"/><path d="M251.76,68.284h-8.262l-1.729,4.966h-3.854l8.057-21.328h3.326l8.07,21.328h-3.867L251.76,68.284zM244.537,65.296h6.182l-3.09-8.848L244.537,65.296z"/><path d="M270.26,57.4l0.104,1.655c0.527-0.615,1.168-1.094,1.926-1.436c0.756-0.342,1.639-0.513,2.645-0.513c0.967,0,1.83,0.193,2.592,0.578c0.762,0.387,1.348,1.004,1.758,1.854c0.527-0.742,1.195-1.333,2-1.772c0.807-0.439,1.76-0.659,2.863-0.659c0.82,0,1.553,0.109,2.197,0.33c0.645,0.219,1.189,0.566,1.635,1.039c0.443,0.475,0.785,1.082,1.025,1.824c0.238,0.742,0.357,1.636,0.357,2.681V73.25h-3.559V62.967c0-0.586-0.066-1.066-0.197-1.443c-0.133-0.375-0.322-0.676-0.572-0.9c-0.248-0.225-0.547-0.381-0.893-0.469c-0.348-0.088-0.74-0.132-1.18-0.132c-0.811,0-1.473,0.218-1.984,0.651c-0.514,0.436-0.873,1.004-1.078,1.707c0,0.049,0.002,0.101,0.008,0.154c0.004,0.054,0.008,0.104,0.008,0.153V73.25h-3.561V63.011c0-0.557-0.064-1.025-0.197-1.406c-0.131-0.381-0.322-0.688-0.57-0.923c-0.25-0.234-0.551-0.402-0.902-0.506c-0.352-0.102-0.746-0.153-1.186-0.153c-0.762,0-1.391,0.156-1.883,0.469c-0.494,0.313-0.877,0.737-1.15,1.274V73.25h-3.559V57.4H270.26z"/><path d="M293.023,53.284c0-0.547,0.174-1.001,0.521-1.362c0.346-0.361,0.842-0.542,1.486-0.542s1.143,0.181,1.494,0.542s0.527,0.815,0.527,1.362c0,0.537-0.176,0.984-0.527,1.341s-0.85,0.534-1.494,0.534s-1.141-0.178-1.486-0.534C293.197,54.269,293.023,53.821,293.023,53.284z M296.803,73.25h-3.559V57.4h3.559V73.25z"/><path d="M303.98,57.4l0.104,1.831c0.557-0.674,1.225-1.196,2.006-1.567s1.65-0.557,2.607-0.557c0.762,0,1.453,0.105,2.072,0.314c0.621,0.211,1.15,0.55,1.59,1.019s0.779,1.079,1.018,1.831c0.24,0.752,0.359,1.665,0.359,2.739V73.25h-3.559V62.981c0-0.547-0.063-1.008-0.184-1.384c-0.123-0.376-0.301-0.682-0.535-0.916s-0.525-0.402-0.871-0.506c-0.348-0.102-0.744-0.153-1.193-0.153c-0.732,0-1.371,0.176-1.912,0.527c-0.543,0.352-0.975,0.825-1.297,1.421V73.25h-3.559V57.4H303.98z"/><path d="M316.695,65.179c0-1.152,0.17-2.22,0.506-3.2c0.338-0.982,0.82-1.834,1.451-2.557c0.629-0.723,1.398-1.289,2.307-1.699s1.938-0.615,3.09-0.615c1.162,0,2.203,0.205,3.121,0.615s1.691,0.977,2.322,1.699c0.629,0.723,1.109,1.574,1.441,2.557c0.332,0.98,0.498,2.048,0.498,3.2v0.308c0,1.152-0.166,2.222-0.498,3.208s-0.813,1.839-1.441,2.556c-0.631,0.719-1.402,1.28-2.314,1.686c-0.914,0.404-1.947,0.607-3.1,0.607c-1.162,0-2.199-0.203-3.111-0.607c-0.914-0.405-1.686-0.967-2.314-1.686c-0.631-0.717-1.113-1.569-1.451-2.556c-0.336-0.986-0.506-2.056-0.506-3.208V65.179z M320.256,65.486c0,0.713,0.072,1.387,0.219,2.021s0.377,1.189,0.689,1.662c0.313,0.475,0.711,0.848,1.193,1.121c0.484,0.273,1.057,0.41,1.721,0.41c0.654,0,1.225-0.137,1.707-0.41c0.484-0.273,0.879-0.646,1.188-1.121c0.307-0.473,0.535-1.027,0.688-1.662c0.15-0.635,0.227-1.309,0.227-2.021v-0.308c0-0.703-0.076-1.37-0.227-1.999c-0.152-0.631-0.383-1.182-0.695-1.656c-0.313-0.473-0.711-0.852-1.193-1.135c-0.484-0.283-1.059-0.425-1.723-0.425s-1.232,0.142-1.705,0.425c-0.475,0.283-0.867,0.662-1.18,1.135c-0.313,0.475-0.543,1.025-0.689,1.656c-0.146,0.629-0.219,1.296-0.219,1.999V65.486z"/><path d="M342.74,60.652c-0.234-0.039-0.471-0.068-0.709-0.088c-0.24-0.02-0.486-0.029-0.74-0.029c-0.859,0-1.559,0.166-2.096,0.498s-0.938,0.791-1.201,1.377v10.84h-3.559V57.4h3.398l0.088,1.772c0.4-0.645,0.895-1.149,1.486-1.517c0.59-0.365,1.287-0.549,2.088-0.549c0.205,0,0.436,0.021,0.695,0.066c0.258,0.043,0.447,0.09,0.564,0.139L342.74,60.652z"/><path d="M345.729,72.342c0,0.488-0.063,0.996-0.189,1.523s-0.313,1.042-0.557,1.545s-0.537,0.982-0.879,1.436c-0.342,0.455-0.723,0.857-1.143,1.209l-1.92-1.143c0.205-0.322,0.4-0.652,0.586-0.988c0.186-0.338,0.344-0.685,0.477-1.041c0.131-0.356,0.236-0.734,0.314-1.135s0.117-0.83,0.117-1.289v-2.651h3.209L345.729,72.342z"/><path d="M356.861,73.25V51.922h7.311c1.152,0,2.188,0.115,3.105,0.344c0.918,0.23,1.693,0.579,2.328,1.048s1.121,1.067,1.457,1.794c0.338,0.729,0.506,1.59,0.506,2.586c0,0.977-0.264,1.855-0.791,2.637s-1.299,1.387-2.314,1.816c0.615,0.166,1.15,0.408,1.604,0.725c0.455,0.318,0.83,0.691,1.129,1.121c0.297,0.43,0.52,0.903,0.666,1.421s0.221,1.055,0.221,1.611c0,1.025-0.17,1.927-0.506,2.702c-0.338,0.777-0.826,1.427-1.465,1.949c-0.641,0.522-1.416,0.915-2.33,1.179c-0.912,0.264-1.945,0.396-3.098,0.396H356.861z M360.568,60.901h3.633c1.152,0,2.053-0.261,2.701-0.784c0.65-0.521,0.975-1.262,0.975-2.219c0-1.055-0.301-1.816-0.9-2.285c-0.602-0.469-1.535-0.703-2.805-0.703h-3.604V60.901z M360.568,63.626v6.665h4.115c0.605,0,1.141-0.078,1.604-0.234c0.465-0.156,0.854-0.378,1.166-0.666s0.547-0.633,0.703-1.033s0.234-0.845,0.234-1.333c0-1.055-0.279-1.885-0.836-2.49s-1.459-0.908-2.709-0.908H360.568z"/><path d="M392.516,67.977l3.281-16.055h3.678l-4.922,21.328h-3.545l-4.059-15.571l-4.145,15.571h-3.561l-4.922-21.328H378l3.311,16.025l4.072-16.025h3.105L392.516,67.977z"/><path d="M409.699,68.606l5.42-16.685h4.072l-7.676,21.328h-3.59l-7.646-21.328h4.059L409.699,68.606z"/><path d="M418.297,71.478c0-0.566,0.182-1.037,0.543-1.413s0.869-0.564,1.523-0.564c0.664,0,1.176,0.188,1.537,0.564s0.543,0.847,0.543,1.413c0,0.557-0.182,1.019-0.543,1.384c-0.361,0.367-0.873,0.55-1.537,0.55c-0.322,0-0.613-0.049-0.873-0.146c-0.258-0.098-0.475-0.234-0.65-0.41s-0.311-0.381-0.404-0.615C418.344,72.005,418.297,71.751,418.297,71.478z M425.006,71.478c0-0.566,0.182-1.037,0.543-1.413s0.869-0.564,1.523-0.564c0.664,0,1.176,0.188,1.537,0.564s0.543,0.847,0.543,1.413c0,0.557-0.182,1.019-0.543,1.384c-0.361,0.367-0.873,0.55-1.537,0.55c-0.322,0-0.613-0.049-0.873-0.146c-0.258-0.098-0.475-0.234-0.65-0.41s-0.311-0.381-0.404-0.615C425.053,72.005,425.006,71.751,425.006,71.478z M431.467,71.478c0-0.566,0.18-1.037,0.541-1.413s0.869-0.564,1.523-0.564c0.664,0,1.178,0.188,1.539,0.564s0.541,0.847,0.541,1.413c0,0.557-0.18,1.019-0.541,1.384c-0.361,0.367-0.875,0.55-1.539,0.55c-0.322,0-0.613-0.049-0.871-0.146c-0.26-0.098-0.477-0.234-0.652-0.41s-0.311-0.381-0.402-0.615C431.512,72.005,431.467,71.751,431.467,71.478z"/></g><g class="player_actionBarSubtitle"><path d="M117.129,89.188h2.262v12.082c0,0.844-0.133,1.592-0.398,2.244s-0.639,1.197-1.119,1.635s-1.051,0.77-1.711,0.996s-1.381,0.34-2.162,0.34c-0.789,0-1.512-0.1-2.168-0.299s-1.223-0.504-1.699-0.914s-0.848-0.926-1.113-1.547s-0.398-1.35-0.398-2.186h2.25c0,0.539,0.078,1.004,0.234,1.395s0.371,0.713,0.645,0.967s0.602,0.441,0.984,0.563s0.805,0.182,1.266,0.182c0.445,0,0.859-0.072,1.242-0.217s0.715-0.357,0.996-0.639s0.5-0.633,0.656-1.055s0.234-0.91,0.234-1.465V89.188z"/><path d="M122.309,99.793c0-0.922,0.135-1.775,0.404-2.561s0.652-1.467,1.148-2.045s1.1-1.031,1.811-1.359s1.508-0.492,2.391-0.492c0.898,0,1.705,0.164,2.42,0.492s1.322,0.781,1.822,1.359s0.883,1.26,1.148,2.045s0.398,1.639,0.398,2.561v0.258c0,0.922-0.133,1.775-0.398,2.561s-0.648,1.465-1.148,2.039s-1.105,1.023-1.816,1.348s-1.512,0.486-2.402,0.486s-1.691-0.162-2.402-0.486s-1.316-0.773-1.816-1.348s-0.885-1.254-1.154-2.039s-0.404-1.639-0.404-2.561V99.793z M124.488,100.051c0,0.633,0.074,1.23,0.223,1.793s0.373,1.057,0.674,1.482s0.676,0.764,1.125,1.014s0.975,0.375,1.576,0.375c0.594,0,1.117-0.125,1.57-0.375s0.828-0.588,1.125-1.014s0.521-0.92,0.674-1.482s0.229-1.16,0.229-1.793v-0.258c0-0.625-0.076-1.221-0.229-1.787s-0.379-1.063-0.68-1.488s-0.678-0.766-1.131-1.02s-0.98-0.381-1.582-0.381c-0.594,0-1.113,0.127-1.559,0.381s-0.818,0.594-1.119,1.02s-0.525,0.922-0.674,1.488s-0.223,1.162-0.223,1.787V100.051z"/><path  d="M138.738,95.105c0.453-0.555,0.996-0.988,1.629-1.301s1.34-0.469,2.121-0.469c0.617,0,1.176,0.084,1.676,0.252s0.926,0.438,1.277,0.809s0.623,0.848,0.814,1.43s0.287,1.287,0.287,2.115v8.309h-2.168v-8.332c0-0.492-0.055-0.912-0.164-1.26s-0.271-0.631-0.486-0.85s-0.48-0.379-0.797-0.48s-0.682-0.152-1.096-0.152c-0.703,0-1.32,0.188-1.852,0.563s-0.945,0.867-1.242,1.477v9.035h-2.168v-18h2.168V95.105z"/><path d="M157.617,106.25c-0.078-0.156-0.141-0.354-0.188-0.592s-0.086-0.486-0.117-0.744c-0.203,0.211-0.432,0.412-0.686,0.604s-0.531,0.359-0.832,0.504s-0.627,0.258-0.979,0.34s-0.723,0.123-1.113,0.123c-0.648,0-1.236-0.098-1.764-0.293s-0.977-0.461-1.348-0.797s-0.658-0.732-0.861-1.189s-0.305-0.947-0.305-1.471c0-0.68,0.133-1.279,0.398-1.799s0.646-0.955,1.143-1.307s1.096-0.617,1.799-0.797s1.488-0.27,2.355-0.27h2.156v-0.996c0-0.758-0.227-1.361-0.68-1.811s-1.121-0.674-2.004-0.674c-0.406,0-0.777,0.055-1.113,0.164s-0.623,0.256-0.861,0.439s-0.424,0.396-0.557,0.639s-0.199,0.496-0.199,0.762h-2.18c0-0.453,0.119-0.902,0.357-1.348s0.576-0.846,1.014-1.201s0.967-0.645,1.588-0.867s1.314-0.334,2.08-0.334c0.688,0,1.322,0.088,1.904,0.264s1.08,0.441,1.494,0.797s0.738,0.799,0.973,1.33s0.352,1.152,0.352,1.863v5.895c0,0.43,0.037,0.881,0.111,1.354s0.186,0.881,0.334,1.225v0.188H157.617z M154.02,104.598c0.391,0,0.758-0.055,1.102-0.164s0.656-0.252,0.938-0.428s0.525-0.377,0.732-0.604s0.369-0.461,0.486-0.703v-2.602h-1.805c-1.242,0-2.199,0.193-2.871,0.58s-1.008,0.971-1.008,1.752c0,0.305,0.051,0.59,0.152,0.855s0.256,0.494,0.463,0.686s0.461,0.344,0.762,0.457S153.621,104.598,154.02,104.598z"/><path d="M164.895,93.57l0.07,1.594c0.453-0.57,1-1.018,1.641-1.342s1.359-0.486,2.156-0.486c0.617,0,1.176,0.084,1.676,0.252s0.926,0.438,1.277,0.809s0.623,0.848,0.814,1.43s0.287,1.287,0.287,2.115v8.309h-2.168v-8.332c0-0.492-0.055-0.912-0.164-1.26s-0.271-0.631-0.486-0.85s-0.48-0.379-0.797-0.48s-0.682-0.152-1.096-0.152c-0.703,0-1.32,0.188-1.852,0.563s-0.945,0.867-1.242,1.477v9.035h-2.168V93.57H164.895z"/><path d="M178.137,93.57l0.07,1.594c0.453-0.57,1-1.018,1.641-1.342s1.359-0.486,2.156-0.486c0.617,0,1.176,0.084,1.676,0.252s0.926,0.438,1.277,0.809s0.623,0.848,0.814,1.43s0.287,1.287,0.287,2.115v8.309h-2.168v-8.332c0-0.492-0.055-0.912-0.164-1.26s-0.271-0.631-0.486-0.85s-0.48-0.379-0.797-0.48s-0.682-0.152-1.096-0.152c-0.703,0-1.32,0.188-1.852,0.563s-0.945,0.867-1.242,1.477v9.035h-2.168V93.57H178.137z"/><path d="M204.703,101.938c0-0.398-0.061-0.75-0.182-1.055s-0.336-0.584-0.645-0.838s-0.725-0.492-1.248-0.715s-1.188-0.451-1.992-0.686c-0.844-0.242-1.607-0.518-2.291-0.826s-1.266-0.664-1.746-1.066s-0.85-0.861-1.107-1.377s-0.387-1.105-0.387-1.77s0.139-1.279,0.416-1.846s0.67-1.059,1.178-1.477s1.117-0.744,1.828-0.979s1.504-0.352,2.379-0.352c0.961,0,1.816,0.145,2.566,0.434s1.381,0.672,1.893,1.148s0.9,1.027,1.166,1.652s0.398,1.27,0.398,1.934h-2.262c0-0.477-0.076-0.918-0.229-1.324s-0.385-0.758-0.697-1.055s-0.703-0.527-1.172-0.691s-1.023-0.246-1.664-0.246c-0.602,0-1.125,0.07-1.57,0.211s-0.813,0.334-1.102,0.58s-0.504,0.537-0.645,0.873s-0.211,0.703-0.211,1.102c0,0.359,0.076,0.688,0.229,0.984s0.389,0.57,0.709,0.82s0.732,0.48,1.236,0.691s1.107,0.414,1.811,0.609c0.969,0.273,1.805,0.576,2.508,0.908s1.283,0.709,1.74,1.131s0.797,0.895,1.02,1.418s0.334,1.117,0.334,1.781c0,0.695-0.141,1.324-0.422,1.887s-0.682,1.043-1.201,1.441s-1.145,0.705-1.875,0.92s-1.545,0.322-2.443,0.322c-0.523,0-1.047-0.049-1.57-0.146s-1.025-0.244-1.506-0.439s-0.926-0.438-1.336-0.727s-0.768-0.625-1.072-1.008s-0.543-0.813-0.715-1.289s-0.258-1-0.258-1.57h2.262c0,0.586,0.115,1.088,0.346,1.506s0.539,0.764,0.926,1.037s0.832,0.475,1.336,0.604s1.033,0.193,1.588,0.193c1.188,0,2.098-0.242,2.73-0.727S204.703,102.773,204.703,101.938z"/><path d="M214.77,106.484c-0.883,0-1.682-0.152-2.396-0.457s-1.326-0.729-1.834-1.271s-0.898-1.189-1.172-1.939s-0.41-1.57-0.41-2.461v-0.492c0-1.031,0.154-1.953,0.463-2.766s0.721-1.496,1.236-2.051s1.105-0.979,1.77-1.271s1.355-0.439,2.074-0.439c0.906,0,1.688,0.158,2.344,0.475s1.197,0.752,1.623,1.307s0.74,1.211,0.943,1.969s0.305,1.582,0.305,2.473v0.973h-8.59c0.016,0.586,0.111,1.133,0.287,1.641s0.426,0.949,0.75,1.324s0.715,0.672,1.172,0.891s0.975,0.328,1.553,0.328c0.766,0,1.414-0.156,1.945-0.469s0.996-0.727,1.395-1.242l1.324,1.031c-0.203,0.313-0.449,0.615-0.738,0.908s-0.627,0.555-1.014,0.785s-0.83,0.414-1.33,0.551S215.402,106.484,214.77,106.484zM214.5,95.117c-0.438,0-0.84,0.08-1.207,0.24s-0.695,0.393-0.984,0.697s-0.529,0.684-0.721,1.137s-0.322,0.973-0.393,1.559h6.352v-0.164c-0.023-0.422-0.092-0.84-0.205-1.254s-0.289-0.785-0.527-1.113s-0.545-0.594-0.92-0.797S215.055,95.117,214.5,95.117z"/><path d="M232.957,100.051c0,0.93-0.109,1.787-0.328,2.572s-0.539,1.465-0.961,2.039s-0.938,1.021-1.547,1.342s-1.305,0.48-2.086,0.48c-0.836,0-1.559-0.146-2.168-0.439s-1.125-0.713-1.547-1.26l-0.105,1.465h-1.992v-18h2.168v6.715c0.422-0.523,0.93-0.926,1.523-1.207s1.293-0.422,2.098-0.422c0.797,0,1.502,0.156,2.115,0.469s1.129,0.752,1.547,1.318s0.736,1.246,0.955,2.039s0.328,1.674,0.328,2.643V100.051z M230.789,99.805c0-0.633-0.059-1.229-0.176-1.787s-0.307-1.049-0.568-1.471s-0.604-0.756-1.025-1.002s-0.938-0.369-1.547-0.369c-0.398,0-0.758,0.051-1.078,0.152s-0.607,0.242-0.861,0.422s-0.475,0.391-0.662,0.633s-0.348,0.504-0.48,0.785v5.484c0.141,0.281,0.307,0.543,0.498,0.785s0.414,0.453,0.668,0.633s0.541,0.32,0.861,0.422s0.68,0.152,1.078,0.152c0.586,0,1.086-0.121,1.5-0.363s0.754-0.57,1.02-0.984s0.461-0.9,0.586-1.459s0.188-1.154,0.188-1.787V99.805z"/><path d="M243.516,106.25c-0.078-0.156-0.141-0.354-0.188-0.592s-0.086-0.486-0.117-0.744c-0.203,0.211-0.432,0.412-0.686,0.604s-0.531,0.359-0.832,0.504s-0.627,0.258-0.979,0.34s-0.723,0.123-1.113,0.123c-0.648,0-1.236-0.098-1.764-0.293s-0.977-0.461-1.348-0.797s-0.658-0.732-0.861-1.189s-0.305-0.947-0.305-1.471c0-0.68,0.133-1.279,0.398-1.799s0.646-0.955,1.143-1.307s1.096-0.617,1.799-0.797s1.488-0.27,2.355-0.27h2.156v-0.996c0-0.758-0.227-1.361-0.68-1.811s-1.121-0.674-2.004-0.674c-0.406,0-0.777,0.055-1.113,0.164s-0.623,0.256-0.861,0.439s-0.424,0.396-0.557,0.639s-0.199,0.496-0.199,0.762h-2.18c0-0.453,0.119-0.902,0.357-1.348s0.576-0.846,1.014-1.201s0.967-0.645,1.588-0.867s1.314-0.334,2.08-0.334c0.688,0,1.322,0.088,1.904,0.264s1.08,0.441,1.494,0.797s0.738,0.799,0.973,1.33s0.352,1.152,0.352,1.863v5.895c0,0.43,0.037,0.881,0.111,1.354s0.186,0.881,0.334,1.225v0.188H243.516z M239.918,104.598c0.391,0,0.758-0.055,1.102-0.164s0.656-0.252,0.938-0.428s0.525-0.377,0.732-0.604s0.369-0.461,0.486-0.703v-2.602h-1.805c-1.242,0-2.199,0.193-2.871,0.58s-1.008,0.971-1.008,1.752c0,0.305,0.051,0.59,0.152,0.855s0.256,0.494,0.463,0.686s0.461,0.344,0.762,0.457S239.52,104.598,239.918,104.598z"/><path d="M256.125,102.887c0-0.234-0.035-0.455-0.105-0.662s-0.209-0.402-0.416-0.586s-0.502-0.354-0.885-0.51s-0.887-0.301-1.512-0.434c-0.703-0.148-1.336-0.324-1.898-0.527s-1.041-0.447-1.436-0.732s-0.697-0.623-0.908-1.014s-0.316-0.848-0.316-1.371c0-0.5,0.111-0.975,0.334-1.424s0.537-0.844,0.943-1.184s0.898-0.609,1.477-0.809s1.223-0.299,1.934-0.299c0.758,0,1.436,0.104,2.033,0.311s1.105,0.49,1.523,0.85s0.736,0.779,0.955,1.26s0.328,0.994,0.328,1.541h-2.18c0-0.258-0.059-0.518-0.176-0.779s-0.289-0.496-0.516-0.703s-0.504-0.375-0.832-0.504s-0.707-0.193-1.137-0.193c-0.453,0-0.838,0.053-1.154,0.158s-0.576,0.246-0.779,0.422s-0.352,0.375-0.445,0.598s-0.141,0.451-0.141,0.686s0.039,0.445,0.117,0.633s0.227,0.357,0.445,0.51s0.518,0.293,0.896,0.422s0.869,0.26,1.471,0.393c0.773,0.18,1.445,0.383,2.016,0.609s1.043,0.49,1.418,0.791s0.654,0.646,0.838,1.037s0.275,0.844,0.275,1.359c0,0.555-0.115,1.063-0.346,1.523s-0.561,0.855-0.99,1.184s-0.945,0.584-1.547,0.768s-1.27,0.275-2.004,0.275c-0.844,0-1.588-0.117-2.232-0.352s-1.186-0.545-1.623-0.932s-0.77-0.828-0.996-1.324s-0.34-1.006-0.34-1.529h2.168c0.023,0.445,0.131,0.818,0.322,1.119s0.432,0.545,0.721,0.732s0.605,0.32,0.949,0.398s0.688,0.117,1.031,0.117c0.445,0,0.836-0.047,1.172-0.141s0.619-0.223,0.85-0.387s0.404-0.357,0.521-0.58S256.125,103.145,256.125,102.887z"/><path d="M264.059,90.5v3.07h2.367v1.676h-2.367v7.863c0,0.328,0.039,0.592,0.117,0.791s0.182,0.354,0.311,0.463s0.277,0.182,0.445,0.217s0.342,0.053,0.521,0.053s0.369-0.018,0.568-0.053s0.354-0.064,0.463-0.088v1.758c-0.172,0.047-0.395,0.098-0.668,0.152s-0.605,0.082-0.996,0.082c-0.398,0-0.775-0.057-1.131-0.17s-0.666-0.303-0.932-0.568s-0.477-0.615-0.633-1.049s-0.234-0.967-0.234-1.6v-7.852h-2.309V93.57h2.309V90.5H264.059z"/><path d="M268.969,90.207c0-0.352,0.107-0.648,0.322-0.891s0.533-0.363,0.955-0.363s0.742,0.121,0.961,0.363s0.328,0.539,0.328,0.891s-0.109,0.645-0.328,0.879s-0.539,0.352-0.961,0.352s-0.74-0.117-0.955-0.352S268.969,90.559,268.969,90.207z M271.313,106.25h-2.168V93.57h2.168V106.25z"/><path d="M282.609,106.25c-0.078-0.156-0.141-0.354-0.188-0.592s-0.086-0.486-0.117-0.744c-0.203,0.211-0.432,0.412-0.686,0.604s-0.531,0.359-0.832,0.504s-0.627,0.258-0.979,0.34s-0.723,0.123-1.113,0.123c-0.648,0-1.236-0.098-1.764-0.293s-0.977-0.461-1.348-0.797s-0.658-0.732-0.861-1.189s-0.305-0.947-0.305-1.471c0-0.68,0.133-1.279,0.398-1.799s0.646-0.955,1.143-1.307s1.096-0.617,1.799-0.797s1.488-0.27,2.355-0.27h2.156v-0.996c0-0.758-0.227-1.361-0.68-1.811s-1.121-0.674-2.004-0.674c-0.406,0-0.777,0.055-1.113,0.164s-0.623,0.256-0.861,0.439s-0.424,0.396-0.557,0.639s-0.199,0.496-0.199,0.762h-2.18c0-0.453,0.119-0.902,0.357-1.348s0.576-0.846,1.014-1.201s0.967-0.645,1.588-0.867s1.314-0.334,2.08-0.334c0.688,0,1.322,0.088,1.904,0.264s1.08,0.441,1.494,0.797s0.738,0.799,0.973,1.33s0.352,1.152,0.352,1.863v5.895c0,0.43,0.037,0.881,0.111,1.354s0.186,0.881,0.334,1.225v0.188H282.609z M279.012,104.598c0.391,0,0.758-0.055,1.102-0.164s0.656-0.252,0.938-0.428s0.525-0.377,0.732-0.604s0.369-0.461,0.486-0.703v-2.602h-1.805c-1.242,0-2.199,0.193-2.871,0.58s-1.008,0.971-1.008,1.752c0,0.305,0.051,0.59,0.152,0.855s0.256,0.494,0.463,0.686s0.461,0.344,0.762,0.457S278.613,104.598,279.012,104.598z"/><path d="M289.887,93.57l0.07,1.594c0.453-0.57,1-1.018,1.641-1.342s1.359-0.486,2.156-0.486c0.617,0,1.176,0.084,1.676,0.252s0.926,0.438,1.277,0.809s0.623,0.848,0.814,1.43s0.287,1.287,0.287,2.115v8.309h-2.168v-8.332c0-0.492-0.055-0.912-0.164-1.26s-0.271-0.631-0.486-0.85s-0.48-0.379-0.797-0.48s-0.682-0.152-1.096-0.152c-0.703,0-1.32,0.188-1.852,0.563s-0.945,0.867-1.242,1.477v9.035h-2.168V93.57H289.887z"/><path d="M307.359,106.25V89.188h5.578c0.875,0,1.656,0.088,2.344,0.264s1.271,0.449,1.752,0.82s0.848,0.842,1.102,1.412s0.381,1.254,0.381,2.051s-0.227,1.502-0.68,2.115s-1.07,1.088-1.852,1.424c0.477,0.133,0.9,0.328,1.271,0.586s0.684,0.563,0.938,0.914s0.447,0.746,0.58,1.184s0.199,0.895,0.199,1.371c0,0.797-0.135,1.502-0.404,2.115s-0.65,1.129-1.143,1.547s-1.086,0.732-1.781,0.943s-1.469,0.316-2.32,0.316H307.359zM309.609,96.465h3.398c0.484,0,0.926-0.063,1.324-0.188s0.74-0.305,1.025-0.539s0.506-0.521,0.662-0.861s0.234-0.725,0.234-1.154c0-0.938-0.273-1.619-0.82-2.045s-1.379-0.639-2.496-0.639h-3.328V96.465z M309.609,98.27v6.141h3.715c0.539,0,1.018-0.072,1.436-0.217s0.771-0.348,1.061-0.609s0.51-0.582,0.662-0.961s0.229-0.803,0.229-1.271s-0.063-0.895-0.188-1.277s-0.322-0.707-0.592-0.973s-0.611-0.471-1.025-0.615S314,98.27,313.43,98.27H309.609z"/><path d="M329.789,106.25c-0.078-0.156-0.141-0.354-0.188-0.592s-0.086-0.486-0.117-0.744c-0.203,0.211-0.432,0.412-0.686,0.604s-0.531,0.359-0.832,0.504s-0.627,0.258-0.979,0.34s-0.723,0.123-1.113,0.123c-0.648,0-1.236-0.098-1.764-0.293s-0.977-0.461-1.348-0.797s-0.658-0.732-0.861-1.189s-0.305-0.947-0.305-1.471c0-0.68,0.133-1.279,0.398-1.799s0.646-0.955,1.143-1.307s1.096-0.617,1.799-0.797s1.488-0.27,2.355-0.27h2.156v-0.996c0-0.758-0.227-1.361-0.68-1.811s-1.121-0.674-2.004-0.674c-0.406,0-0.777,0.055-1.113,0.164s-0.623,0.256-0.861,0.439s-0.424,0.396-0.557,0.639s-0.199,0.496-0.199,0.762h-2.18c0-0.453,0.119-0.902,0.357-1.348s0.576-0.846,1.014-1.201s0.967-0.645,1.588-0.867s1.314-0.334,2.08-0.334c0.688,0,1.322,0.088,1.904,0.264s1.08,0.441,1.494,0.797s0.738,0.799,0.973,1.33s0.352,1.152,0.352,1.863v5.895c0,0.43,0.037,0.881,0.111,1.354s0.186,0.881,0.334,1.225v0.188H329.789z M326.191,104.598c0.391,0,0.758-0.055,1.102-0.164s0.656-0.252,0.938-0.428s0.525-0.377,0.732-0.604s0.369-0.461,0.486-0.703v-2.602h-1.805c-1.242,0-2.199,0.193-2.871,0.58s-1.008,0.971-1.008,1.752c0,0.305,0.051,0.59,0.152,0.855s0.256,0.494,0.463,0.686s0.461,0.344,0.762,0.457S325.793,104.598,326.191,104.598z"/><path d="M340.102,104.715c0.383,0,0.75-0.063,1.102-0.188s0.662-0.297,0.932-0.516s0.488-0.479,0.656-0.779s0.268-0.627,0.299-0.979h2.051c-0.031,0.563-0.186,1.1-0.463,1.611s-0.643,0.961-1.096,1.348s-0.979,0.695-1.576,0.926s-1.232,0.346-1.904,0.346c-0.953,0-1.783-0.17-2.49-0.51s-1.295-0.799-1.764-1.377s-0.818-1.25-1.049-2.016s-0.346-1.574-0.346-2.426v-0.492c0-0.852,0.115-1.66,0.346-2.426s0.58-1.438,1.049-2.016s1.055-1.037,1.758-1.377s1.531-0.51,2.484-0.51c0.742,0,1.416,0.117,2.021,0.352s1.129,0.557,1.57,0.967s0.787,0.896,1.037,1.459s0.391,1.168,0.422,1.816h-2.051c-0.031-0.391-0.123-0.756-0.275-1.096s-0.357-0.637-0.615-0.891s-0.564-0.455-0.92-0.604s-0.752-0.223-1.189-0.223c-0.672,0-1.229,0.133-1.67,0.398s-0.797,0.615-1.066,1.049s-0.459,0.922-0.568,1.465s-0.164,1.088-0.164,1.635v0.492c0,0.563,0.055,1.115,0.164,1.658s0.297,1.029,0.563,1.459s0.621,0.777,1.066,1.043S339.422,104.715,340.102,104.715z"/><path d="M349.746,95.105c0.453-0.555,0.996-0.988,1.629-1.301s1.34-0.469,2.121-0.469c0.617,0,1.176,0.084,1.676,0.252s0.926,0.438,1.277,0.809s0.623,0.848,0.814,1.43s0.287,1.287,0.287,2.115v8.309h-2.168v-8.332c0-0.492-0.055-0.912-0.164-1.26s-0.271-0.631-0.486-0.85s-0.48-0.379-0.797-0.48s-0.682-0.152-1.096-0.152c-0.703,0-1.32,0.188-1.852,0.563s-0.945,0.867-1.242,1.477v9.035h-2.168v-18h2.168V95.105z"/></g><path class="player_actionBarItems" d="M53.75,77.75H35.494l8.385-8.385L41.75,67.25l-12,12l12,12l2.115-2.115l-8.371-8.385H53.75V77.75z"/></svg>